<?xml version="1.0" encoding="UTF-8" standalone="no"?>
<svg width="36px" height="36px" viewBox="0 0 36 36" version="1.1" xmlns="http://www.w3.org/2000/svg" xmlns:xlink="http://www.w3.org/1999/xlink" xmlns:sketch="http://www.bohemiancoding.com/sketch/ns">
    <!-- Generator: Sketch 3.4.2 (15857) - http://www.bohemiancoding.com/sketch -->
    <title>Shape</title>
    <desc>Created with Sketch.</desc>
    <defs></defs>
    <g id="Page-1" stroke="none" stroke-width="1" fill="none" fill-rule="evenodd" sketch:type="MSPage">
        <g id="Desktop" sketch:type="MSArtboardGroup" transform="translate(-122.000000, -401.000000)" fill="#91D66E">
            <g id="ios-plus-+-TORRENT" sketch:type="MSLayerGroup" transform="translate(122.000000, 401.000000)">
                <g id="ios-plus" sketch:type="MSShapeGroup">
                    <g id="Layer_1">
                        <path d="M18,0 C8.05673077,0 0,8.05673077 0,18 C0,27.9432692 8.05673077,36 18,36 C27.9432692,36 36,27.9432692 36,18 C36,8.05673077 27.9432692,0 18,0 L18,0 Z M29.0769231,18.7788462 L18.6923077,18.7788462 L18.6923077,29.0769231 L17.2211538,29.0769231 L17.2211538,18.7788462 L6.92307692,18.7788462 L6.92307692,17.3076923 L17.2211538,17.3076923 L17.2211538,6.92307692 L18.6923077,6.92307692 L18.6923077,17.3076923 L29.0769231,17.3076923 L29.0769231,18.7788462 L29.0769231,18.7788462 Z" id="Shape"></path>
                    </g>
                </g>
            </g>
        </g>
    </g>
</svg>