<?xml version="1.0" encoding="UTF-8" standalone="no"?>
<svg width="25px" height="24px" viewBox="0 0 25 24" version="1.1" xmlns="http://www.w3.org/2000/svg" xmlns:xlink="http://www.w3.org/1999/xlink" xmlns:sketch="http://www.bohemiancoding.com/sketch/ns">
    <!-- Generator: Sketch 3.4.2 (15857) - http://www.bohemiancoding.com/sketch -->
    <title>download</title>
    <desc>Created with Sketch.</desc>
    <defs></defs>
    <g id="Page-1" stroke="none" stroke-width="1" fill="none" fill-rule="evenodd" sketch:type="MSPage">
        <g id="Desktop" sketch:type="MSArtboardGroup" transform="translate(-371.000000, -657.000000)" fill="#4A90E2">
            <g id="Group" sketch:type="MSLayerGroup" transform="translate(122.000000, 594.000000)">
                <g id="12.5-KB/s-+-Shape-+-Shape-+-ios-cloud-download-outline" transform="translate(118.000000, 63.000000)" sketch:type="MSShapeGroup">
                    <g id="ios-cloud-download-outline" transform="translate(131.000000, 0.000000)">
                        <g id="download">
                            <path d="M9.01913883,18.6388122 L8.37412027,19.2727097 L12.5166964,23.3541203 L16.6592725,19.2727097 L16.0142539,18.6388122 L12.9726578,21.6303638 L12.9726578,8.16838159 L12.060735,8.16838159 L12.060735,21.6303638 L9.01913883,18.6388122 Z" id="Shape"></path>
                            <path d="M20.4737788,6.58363771 C20.4737788,6.51691166 20.4848998,6.4557461 20.4848998,6.38902004 C20.4848998,2.85809948 17.5433927,0 13.9902301,0 C11.4268374,0 9.219317,1.49021529 8.1850631,3.63657016 C7.73466221,3.41414996 7.23421678,3.28625835 6.69484781,3.28625835 C5.04893838,3.28625835 3.6866147,4.58185598 3.41971047,6.13879733 C1.46241277,6.80605791 0.0500445434,8.55205642 0.0500445434,10.7206533 C0.0500445434,13.4508612 2.27980698,15.6806236 5.03225687,15.6806236 L10.1201188,15.6806236 L10.1201188,14.7909428 L5.07674091,14.7909428 C2.80249443,14.7909428 0.950846325,12.9448552 0.950846325,10.6928508 C0.950846325,8.94685226 2.0740683,7.4955605 3.74221975,6.92838901 L4.20930215,6.77269488 L4.29270973,6.28893096 C4.4928879,5.10454343 5.52158129,4.13145509 6.73377134,4.13145509 C7.11744618,4.13145509 7.4955605,4.22042316 7.8403118,4.39279881 L8.59097996,4.76535264 L8.95241277,4.00912398 C9.87545657,2.09631032 11.8494358,0.861878248 13.9791091,0.861878248 C17.0540683,0.861878248 19.5896585,3.24177431 19.5896585,6.28893096 C19.5896585,7.01735709 19.5785375,7.40659243 19.5785375,7.40659243 L20.4237342,7.41215293 C22.4644395,7.43995546 24.0714254,9.08030438 24.0714254,11.1043281 C24.0714254,13.1227914 22.414395,14.7798218 20.3736897,14.7909428 L20.1957535,14.7965033 L14.7909428,14.7965033 L14.7909428,15.6861841 L20.4070527,15.6861841 L20.4070527,15.6861841 C22.9092799,15.6861841 24.9611062,13.6176763 24.9611062,11.1210097 C24.9611062,8.61878248 22.9926875,6.58919822 20.4737788,6.58363771 L20.4737788,6.58363771 Z" id="Shape"></path>
                        </g>
                    </g>
                </g>
            </g>
        </g>
    </g>
</svg>