<?xml version="1.0" encoding="UTF-8" standalone="no"?>
<svg width="32px" height="32px" viewBox="0 0 32 32" version="1.1" xmlns="http://www.w3.org/2000/svg" xmlns:xlink="http://www.w3.org/1999/xlink" xmlns:sketch="http://www.bohemiancoding.com/sketch/ns">
    <!-- Generator: Sketch 3.4.2 (15857) - http://www.bohemiancoding.com/sketch -->
    <title>green + Group</title>
    <desc>Created with Sketch.</desc>
    <defs></defs>
    <g id="Page-1" stroke="none" stroke-width="1" fill="none" fill-rule="evenodd" sketch:type="MSPage">
        <g id="Desktop" sketch:type="MSArtboardGroup" transform="translate(-798.000000, -519.000000)">
            <g id="Group" sketch:type="MSLayerGroup" transform="translate(122.000000, 464.000000)">
                <g id="green-+-Group" transform="translate(676.000000, 55.000000)" sketch:type="MSShapeGroup">
                    <circle id="green" fill="#91D66E" cx="16" cy="16" r="16"></circle>
                    <g id="Group" transform="translate(9.000000, 10.000000)" fill="#FFFFFF">
                        <path d="M13.75,3.5 L0.25,3.5 C0.11215625,3.5 0,3.61215625 0,3.75 L0,11.21875 C0,11.6349063 0.36509375,12 0.78125,12 L13.28125,12 C13.6775937,12 14,11.6495313 14,11.21875 L14,3.75 C14,3.61215625 13.8878438,3.5 13.75,3.5 L13.75,3.5 Z" id="Shape"></path>
                        <path d="M13.28125,1 L5.71875,1 C5.63153125,1 5.58528125,0.98171875 5.5283125,0.92475 L4.82515625,0.22159375 L4.81990625,0.21653125 C4.66765625,0.07290625 4.54253125,0 4.28125,0 L0.78125,0 C0.35046875,0 0,0.32240625 0,0.71875 L0,3.043 C0.07825,3.01525 0.16234375,3 0.25,3 L13.75,3 C13.8376563,3 13.92175,3.01525 14,3.043 L14,1.71875 C14,1.30228125 13.6977187,1 13.28125,1 L13.28125,1 Z" id="Shape"></path>
                    </g>
                </g>
            </g>
        </g>
    </g>
</svg>