<?xml version="1.0" encoding="UTF-8" standalone="no"?>
<svg width="99px" height="99px" viewBox="0 0 99 99" version="1.1" xmlns="http://www.w3.org/2000/svg" xmlns:xlink="http://www.w3.org/1999/xlink" xmlns:sketch="http://www.bohemiancoding.com/sketch/ns">
    <!-- Generator: Sketch 3.4.2 (15857) - http://www.bohemiancoding.com/sketch -->
    <title>Oval 70</title>
    <desc>Created with Sketch.</desc>
    <defs></defs>
    <g id="Page-1" stroke="none" stroke-width="1" fill="none" fill-rule="evenodd" sketch:type="MSPage">
        <g id="Desktop" sketch:type="MSArtboardGroup" transform="translate(-131.000000, -463.000000)" stroke="#535A66" fill="">
            <g id="Group" sketch:type="MSLayerGroup" transform="translate(122.000000, 464.000000)">
                <g id="File" sketch:type="MSShapeGroup">
                    <g id="progress" transform="translate(10.000000, 0.000000)">
                        <path d="M48.2995868,96.5 C74.974712,96.5 96.5991736,74.8977392 96.5991736,48.25 C96.5991736,21.6022608 74.974712,0 48.2995868,0 C21.6244616,0 0,21.6022608 0,48.25 C0,74.8977392 21.6244616,96.5 48.2995868,96.5 Z M48.6600315,87.6181592 C70.2257421,87.6181592 87.7082048,70.1536449 87.7082048,48.6100746 C87.7082048,27.0665044 70.2257421,9.60199005 48.6600315,9.60199005 C27.0943208,9.60199005 9.61185807,27.0665044 9.61185807,48.6100746 C9.61185807,70.1536449 27.0943208,87.6181592 48.6600315,87.6181592 Z" id="Oval-70"></path>
                    </g>
                </g>
            </g>
        </g>
    </g>
</svg>