<?xml version="1.0" encoding="UTF-8" standalone="no"?>
<svg width="28px" height="24px" viewBox="0 0 28 24" version="1.1" xmlns="http://www.w3.org/2000/svg" xmlns:xlink="http://www.w3.org/1999/xlink" xmlns:sketch="http://www.bohemiancoding.com/sketch/ns">
    <!-- Generator: Sketch 3.4.2 (15857) - http://www.bohemiancoding.com/sketch -->
    <title>upload</title>
    <desc>Created with Sketch.</desc>
    <defs></defs>
    <g id="Page-1" stroke="none" stroke-width="1" fill="none" fill-rule="evenodd" sketch:type="MSPage">
        <g id="Desktop" sketch:type="MSArtboardGroup" transform="translate(-240.000000, -657.000000)" fill="#FC625D">
            <g id="Group" sketch:type="MSLayerGroup" transform="translate(122.000000, 594.000000)">
                <g id="12.5-KB/s-+-Shape-+-Shape-+-ios-cloud-download-outline" transform="translate(118.000000, 63.000000)" sketch:type="MSShapeGroup">
                    <g id="upload">
                        <path d="M10.0550649,12.3054545 L9.33194805,11.5823377 L13.9761039,6.95064935 L18.6202597,11.5823377 L17.8909091,12.3054545 L14.4872727,8.90181818 L14.4872727,23.9750649 L13.4587013,23.9750649 L13.4587013,8.90181818 L10.0550649,12.3054545 Z" id="Shape"></path>
                        <path d="M22.8966234,7.51792208 C22.8966234,7.44311688 22.9090909,7.36831169 22.9090909,7.29350649 C22.9090909,3.28519481 19.6176623,0.0374025974 15.6280519,0.0374025974 C12.7542857,0.0374025974 10.2794805,1.72675325 9.12,4.17038961 C8.61506494,3.91480519 8.05402597,3.77142857 7.44935065,3.77142857 C5.60415584,3.77142857 4.07688312,5.2425974 3.77766234,7.01298701 C1.58337662,7.76727273 0,9.92415584 0,12.3927273 C0,15.4909091 2.49974026,18.0155844 5.58545455,18.0155844 L11.2831169,18.0155844 L11.2831169,17.0181818 L5.63532468,17.0181818 C3.08571429,17.0181818 1.00987013,14.9298701 1.00987013,12.3677922 C1.00987013,10.3854545 2.26909091,8.55272727 4.13922078,7.90441558 L4.66285714,7.72363636 L4.75636364,7.17506494 C4.98077922,5.82857143 6.13402597,4.72519481 7.49298701,4.72519481 C7.92311688,4.72519481 8.34701299,4.82493506 8.73350649,5.02441558 L9.57506494,5.44831169 L9.98025974,4.59428571 C11.0150649,2.4187013 13.2280519,1.0161039 15.6155844,1.0161039 C19.0628571,1.0161039 21.9054545,3.71532468 21.9054545,7.1812987 C21.9054545,8.01038961 21.892987,8.44675325 21.892987,8.44675325 L22.8405195,8.45298701 C25.1220779,8.48415584 26.9298701,10.5350649 26.9298701,12.8353247 C26.9298701,15.1293506 25.0722078,17.0057143 22.7844156,17.0181818 L22.5849351,17.0181818 L16.5194805,17.0181818 L16.5194805,18.0155844 L22.8155844,18.0155844 L22.8155844,18.0155844 C25.6207792,18.0155844 27.9272727,15.6903896 27.9272727,12.854026 C27.9272727,10.0176623 25.7142857,7.52415584 22.8966234,7.51792208 L22.8966234,7.51792208 Z" id="Shape"></path>
                    </g>
                </g>
            </g>
        </g>
    </g>
</svg>