<?xml version="1.0" encoding="UTF-8" standalone="no"?>
<svg width="53px" height="52px" viewBox="0 0 53 52" version="1.1" xmlns="http://www.w3.org/2000/svg" xmlns:xlink="http://www.w3.org/1999/xlink">
    <!-- Generator: Sketch 46.2 (44496) - http://www.bohemiancoding.com/sketch -->
    <title>logo</title>
    <desc>Created with Sketch.</desc>
    <defs>
        <path d="M105.462409,126.945845 C102.038788,122.542717 100,117.009451 100,111 C100,104.991688 102.038015,99.4593795 105.460463,95.0566575 L109.78236,99.378554 C107.424296,102.660545 106.035714,106.685958 106.035714,111.035691 C106.035714,115.368215 107.41333,119.378979 109.754416,122.653838 L105.462409,126.945845 Z M110.05916,131.541482 C114.461476,134.962757 119.992826,137 126,137 C132.008312,137 137.54062,134.961985 141.943343,131.539537 L137.692829,127.289023 C134.410838,129.647086 130.385425,131.035669 126.035691,131.035669 C121.668753,131.035669 117.628707,129.63608 114.339645,127.260997 L110.05916,131.541482 Z M110.056657,90.4604634 C114.45938,87.0380152 119.991688,85 126,85 C140.359403,85 152,96.6405965 152,111 C152,117.008312 149.961985,122.54062 146.539537,126.943343 L142.289023,122.692829 C144.647086,119.410838 146.035669,115.385425 146.035669,111.035691 C146.035669,99.990009 137.081374,91.0357143 126.035691,91.0357143 C121.685958,91.0357143 117.660545,92.4242964 114.378554,94.78236 L110.056657,90.4604634 Z M120.83321,120.640858 L116.369143,120.640858 L125.969286,111.016714 L116.369143,101.416571 L135.569429,101.416571 L135.569429,104.584619 L124.097258,104.584619 L130.505354,111.016714 L120.83321,120.640858 Z" id="path-1"></path>
        <filter x="-1.0%" y="-1.0%" width="101.9%" height="103.8%" filterUnits="objectBoundingBox" id="filter-2">
            <feOffset dx="0" dy="1" in="SourceAlpha" result="shadowOffsetOuter1"></feOffset>
            <feColorMatrix values="0 0 0 0 1   0 0 0 0 1   0 0 0 0 1  0 0 0 0.5 0" type="matrix" in="shadowOffsetOuter1"></feColorMatrix>
        </filter>
    </defs>
    <g id="Page-1" stroke="none" stroke-width="1" fill="none" fill-rule="evenodd">
        <g id="Artboard" transform="translate(-99.000000, -85.000000)">
            <g id="logo" transform="translate(126.000000, 111.000000) rotate(-270.000000) translate(-126.000000, -111.000000) ">
                <use fill="black" fill-opacity="1" filter="url(#filter-2)" xlink:href="#path-1"></use>
                <use fill="#5B5B5C" fill-rule="evenodd" xlink:href="#path-1"></use>
            </g>
        </g>
    </g>
</svg>