<?xml version="1.0" encoding="UTF-8" standalone="no"?>
<svg width="1024px" height="1024px" viewBox="0 0 1024 1024" version="1.1" xmlns="http://www.w3.org/2000/svg" xmlns:xlink="http://www.w3.org/1999/xlink">
    <!-- Generator: Sketch 46.2 (44496) - http://www.bohemiancoding.com/sketch -->
    <title>icon</title>
    <desc>Created with Sketch.</desc>
    <defs>
        <linearGradient x1="0.550063776%" y1="0.550063776%" x2="97.8019376%" y2="97.8019376%" id="linearGradient-1">
            <stop stop-color="#5D9CEC" offset="0%"></stop>
            <stop stop-color="#0E65D7" offset="100%"></stop>
        </linearGradient>
        <linearGradient x1="3.76362418%" y1="3.76362418%" x2="97.2572992%" y2="97.2572992%" id="linearGradient-2">
            <stop stop-color="#AC92EC" offset="0%"></stop>
            <stop stop-color="#7455C3" offset="100%"></stop>
        </linearGradient>
        <linearGradient x1="3.07215613%" y1="3.07215613%" x2="99.1080901%" y2="99.1080901%" id="linearGradient-3">
            <stop stop-color="#EDF0F6" offset="0%"></stop>
            <stop stop-color="#C9D6E8" offset="100%"></stop>
        </linearGradient>
        <path d="M238.918629,673.510235 C198.230206,621.180751 174,555.420009 174,484 C174,412.59352 198.221027,346.844164 238.895507,294.519506 L274.119924,329.743922 C242.11091,372.984972 223.182799,426.494127 223.182799,484.424179 C223.182799,542.15007 241.97773,595.486171 273.781988,638.646876 L238.918629,673.510235 Z M293.54925,728.127611 C345.86908,768.788151 411.60705,793 483,793 C554.40648,793 620.155836,768.778973 672.480494,728.104493 L638.104435,693.728433 C594.863385,725.737447 541.35423,744.665558 483.424179,744.665558 C425.290021,744.665558 371.607967,725.603832 328.287249,693.389612 L293.54925,728.127611 Z M293.519506,239.895507 C345.844164,199.221027 411.59352,175 483,175 C653.655988,175 792,313.344012 792,484 C792,555.40648 767.778973,621.155836 727.104493,673.480494 L692.728433,639.104435 C724.737447,595.863385 743.665558,542.35423 743.665558,484.424179 C743.665558,340.696834 627.151523,224.182799 483.424179,224.182799 C425.494127,224.182799 371.984972,243.11091 328.743922,275.119924 L293.519506,239.895507 Z M403.989021,633.110642 L334.995935,633.110642 L483.368162,484.181555 L334.995935,335.623863 L631.740389,335.623863 L631.740389,384.647901 L454.435578,384.647901 L553.47404,484.181555 L403.989021,633.110642 Z" id="path-4"></path>
        <filter x="-0.8%" y="-0.6%" width="101.6%" height="101.6%" filterUnits="objectBoundingBox" id="filter-5">
            <feOffset dx="0" dy="1" in="SourceAlpha" result="shadowOffsetOuter1"></feOffset>
            <feGaussianBlur stdDeviation="1.5" in="shadowOffsetOuter1" result="shadowBlurOuter1"></feGaussianBlur>
            <feColorMatrix values="0 0 0 0 0   0 0 0 0 0   0 0 0 0 0  0 0 0 0.5 0" type="matrix" in="shadowBlurOuter1"></feColorMatrix>
        </filter>
        <linearGradient x1="0.550063776%" y1="0.550063776%" x2="97.8019376%" y2="97.8019376%" id="linearGradient-6">
            <stop stop-color="#FFD97C" offset="0%"></stop>
            <stop stop-color="#F6A742" offset="100%"></stop>
        </linearGradient>
        <linearGradient x1="3.34867885%" y1="3.34867885%" x2="100%" y2="100%" id="linearGradient-7">
            <stop stop-color="#FC6E51" offset="0%"></stop>
            <stop stop-color="#DB391F" offset="97.7658642%"></stop>
        </linearGradient>
    </defs>
    <g id="Page-1" stroke="none" stroke-width="1" fill="none" fill-rule="evenodd">
        <g id="icon">
            <g id="Group" transform="translate(29.000000, 0.000000)">
                <circle id="Moon-Rear" fill="url(#linearGradient-1)" cx="180.5" cy="209.5" r="98.5"></circle>
                <circle id="Saturn" fill="url(#linearGradient-2)" cx="484" cy="484" r="402"></circle>
                <g id="Combined-Shape" transform="translate(483.000000, 484.000000) rotate(-270.000000) translate(-483.000000, -484.000000) ">
                    <use fill="black" fill-opacity="1" filter="url(#filter-5)" xlink:href="#path-4"></use>
                    <use fill="url(#linearGradient-3)" fill-rule="evenodd" xlink:href="#path-4"></use>
                </g>
                <path d="M106.375436,382.000013 C106.336559,382.007651 106.297687,382.01529 106.258819,382.02293 C-14.7496161,405.808877 -91,440.5098 -91,479.153545 C-91,550.865762 171.584994,609 495.5,609 C819.415006,609 1082,550.865762 1082,479.153545 C1082,440.683023 1006.43168,406.120055 886.365769,382.343454 C891.293635,402.14114 894.750923,422.519511 896.615065,443.356112 C896.688066,443.396595 896.760946,443.437091 896.833705,443.477601 C916.428498,454.387518 927.200423,466.285416 927.200423,478.740021 C927.200423,531.496461 733.92156,574.264006 495.5,574.264006 C257.07844,574.264006 63.7995766,531.496461 63.7995766,478.740021 C63.7995766,465.876097 75.291173,453.606073 96.1267573,442.405158 C98.0213162,421.778978 101.477272,401.604251 106.375493,382 Z" id="Ring-2" fill="url(#linearGradient-6)" transform="translate(495.500000, 495.500000) rotate(-45.000000) translate(-495.500000, -495.500000) "></path>
                <path d="M131.344009,418.000007 C15.517413,441.700038 -57,475.607787 -57,513.262193 C-57,584.914405 205.584994,643 529.5,643 C853.415006,643 1116,584.914405 1116,513.262193 C1116,475.792086 1044.19072,442.03205 929.353607,418.348738 C931.250991,434.15923 932.227241,450.252362 932.227241,466.57311 C932.227241,470.658724 931.953965,474.443008 931.41749,477.942628 C950.642343,488.754128 961.200423,500.528972 961.200423,512.849016 C961.200423,565.561312 767.92156,608.293071 529.5,608.293071 C291.07844,608.293071 97.7995766,565.561312 97.7995766,512.849016 C97.7995766,500.205651 108.919091,488.136475 129.113968,477.093429 C128.659516,473.832875 128.42837,470.330424 128.42837,466.57311 C128.42837,450.132351 129.41903,433.922568 131.344012,418 Z" id="Ring-1" fill="url(#linearGradient-7)" opacity="0.25" transform="translate(529.500000, 530.500000) rotate(-45.000000) translate(-529.500000, -530.500000) "></path>
                <circle id="Trajectory-ring" stroke="#FFFFFF" stroke-width="5" opacity="0.219370201" style="mix-blend-mode: soft-light;" stroke-linecap="round" stroke-linejoin="round" stroke-dasharray="20" cx="483" cy="484" r="452"></circle>
                <circle id="Moon-Front" fill="url(#linearGradient-7)" cx="714" cy="795" r="98"></circle>
            </g>
        </g>
    </g>
</svg>