<?xml version="1.0" encoding="UTF-8" standalone="no"?>
<svg width="1024px" height="1024px" viewBox="0 0 1024 1024" version="1.1" xmlns="http://www.w3.org/2000/svg" xmlns:xlink="http://www.w3.org/1999/xlink">
    <!-- Generator: Sketch 46.2 (44496) - http://www.bohemiancoding.com/sketch -->
    <title>icon</title>
    <desc>Created with Sketch.</desc>
    <defs>
        <linearGradient x1="0.550063776%" y1="0.550063776%" x2="97.8019376%" y2="97.8019376%" id="linearGradient-1">
            <stop stop-color="#5D9CEC" offset="0%"></stop>
            <stop stop-color="#0E65D7" offset="100%"></stop>
        </linearGradient>
        <linearGradient x1="3.76362418%" y1="3.76362418%" x2="97.2572992%" y2="97.2572992%" id="linearGradient-2">
            <stop stop-color="#AC92EC" offset="0%"></stop>
            <stop stop-color="#7455C3" offset="100%"></stop>
        </linearGradient>
        <linearGradient x1="3.07215613%" y1="3.07215613%" x2="99.1080901%" y2="99.1080901%" id="linearGradient-3">
            <stop stop-color="#EDF0F6" offset="0%"></stop>
            <stop stop-color="#C9D6E8" offset="100%"></stop>
        </linearGradient>
        <path d="M261.618632,490.021541 C230.519641,450.025049 212,399.762773 212,345.175003 C212,290.597574 230.512625,240.344 261.60096,200.351197 L288.5237,227.273936 C264.058558,260.323953 249.591417,301.222091 249.591417,345.499211 C249.591417,389.620288 263.956766,430.386157 288.265409,463.374765 L261.618632,490.021541 Z M303.37393,531.766716 C343.363044,562.844396 393.607915,581.350006 448.175003,581.350006 C502.752432,581.350006 553.006006,562.837381 592.99881,531.749046 L566.724486,505.474723 C533.67447,529.939865 492.776332,544.407006 448.499211,544.407006 C404.066089,544.407006 363.0358,529.83774 329.924891,505.215755 L303.37393,531.766716 Z M303.351197,158.60096 C343.344,127.512625 393.597574,109 448.175003,109 C578.610856,109 684.350006,214.739151 684.350006,345.175003 C684.350006,399.752432 665.837381,450.006006 634.749046,489.99881 L608.474723,463.724486 C632.939865,430.67447 647.407006,389.776332 647.407006,345.499211 C647.407006,235.64547 558.352953,146.591417 448.499211,146.591417 C404.222091,146.591417 363.323953,161.058558 330.273936,185.5237 L303.351197,158.60096 Z M387.7853,459.143308 L335.052477,459.143308 L448.456397,345.313769 L335.052477,231.768095 L561.860317,231.768095 L561.860317,269.238167 L426.342633,269.238167 L502.039749,345.313769 L387.7853,459.143308 Z" id="path-4"></path>
        <filter x="-1.5%" y="-1.1%" width="103.0%" height="103.0%" filterUnits="objectBoundingBox" id="filter-5">
            <feOffset dx="0" dy="2" in="SourceAlpha" result="shadowOffsetOuter1"></feOffset>
            <feGaussianBlur stdDeviation="2" in="shadowOffsetOuter1" result="shadowBlurOuter1"></feGaussianBlur>
            <feColorMatrix values="0 0 0 0 0   0 0 0 0 0   0 0 0 0 0  0 0 0 0.5 0" type="matrix" in="shadowBlurOuter1"></feColorMatrix>
        </filter>
        <linearGradient x1="0.550063776%" y1="0.550063776%" x2="97.8019376%" y2="97.8019376%" id="linearGradient-6">
            <stop stop-color="#FFD97C" offset="0%"></stop>
            <stop stop-color="#F6A742" offset="100%"></stop>
        </linearGradient>
        <linearGradient x1="3.34867885%" y1="3.34867885%" x2="100%" y2="100%" id="linearGradient-7">
            <stop stop-color="#FC6E51" offset="0%"></stop>
            <stop stop-color="#DB391F" offset="97.7658642%"></stop>
        </linearGradient>
    </defs>
    <g id="Page-1" stroke="none" stroke-width="1" fill="none" fill-rule="evenodd">
        <g id="icon">
            <g id="Saturn" transform="translate(64.000000, 167.000000)">
                <ellipse id="Moon-Rear" fill="url(#linearGradient-1)" cx="216.878683" cy="135.4593" rx="75.2385979" ry="75.2473925"></ellipse>
                <ellipse fill="url(#linearGradient-2)" cx="448.634199" cy="345.108056" rx="306.994114" ry="307.029999"></ellipse>
                <g id="Combined-Shape" transform="translate(448.175003, 345.175003) rotate(-270.000000) translate(-448.175003, -345.175003) ">
                    <use fill="black" fill-opacity="1" filter="url(#filter-5)" xlink:href="#path-4"></use>
                    <use fill="url(#linearGradient-3)" fill-rule="evenodd" xlink:href="#path-4"></use>
                </g>
                <path d="M150.765892,270.502254 C150.736195,270.508094 150.706502,270.513935 150.676813,270.519777 C58.2441125,288.707525 0,315.241328 0,344.789981 C0,399.624195 200.576432,444.076108 448,444.076108 C695.423568,444.076108 896,399.624195 896,344.789981 C896,315.373782 838.276884,288.945465 746.564134,270.764863 C750.328301,285.903016 752.969162,301.485187 754.393093,317.417739 C754.448855,317.448694 754.504525,317.479659 754.560102,317.510635 C769.527651,325.852822 777.755822,334.950461 777.755822,344.473783 C777.755822,384.813603 630.119112,417.515488 448,417.515488 C265.880888,417.515488 118.244178,384.813603 118.244178,344.473783 C118.244178,334.637478 127.022072,325.255296 142.937404,316.690599 C144.384569,300.918944 147.024412,285.492489 150.765935,270.502244 Z" id="Ring-2" fill="url(#linearGradient-6)"></path>
                <path d="M143.867205,307.934012 C55.3926701,326.071242 0,352.020263 0,380.836537 C0,435.670751 200.576432,480.122664 448,480.122664 C695.423568,480.122664 896,435.670751 896,380.836537 C896,352.161303 841.148239,326.325324 753.429524,308.20089 C754.878847,320.300389 755.624559,332.616189 755.624559,345.106179 C755.624559,348.23283 755.415816,351.128877 755.006028,353.807076 C769.690997,362.080933 777.755822,371.09202 777.755822,380.520339 C777.755822,420.860159 630.119112,453.562044 448,453.562044 C265.880888,453.562044 118.244178,420.860159 118.244178,380.520339 C118.244178,370.844588 126.737857,361.608254 142.163781,353.157199 C141.816646,350.661953 141.640085,347.981587 141.640085,345.106179 C141.640085,332.524346 142.396804,320.119276 143.867207,307.934007 Z" id="Ring-1" fill="url(#linearGradient-7)" opacity="0.25"></path>
                <circle id="Trajectory-ring" stroke="#FFFFFF" stroke-width="5" opacity="0.768285779" style="mix-blend-mode: soft-light;" stroke-linecap="round" stroke-linejoin="round" stroke-dasharray="20" cx="448" cy="345.422376" r="345.422376"></circle>
                <circle id="Moon-Front" fill="url(#linearGradient-7)" cx="624.402428" cy="583.215958" r="74.9904597"></circle>
            </g>
        </g>
    </g>
</svg>