<?xml version="1.0" encoding="UTF-8" standalone="no"?>
<svg width="62px" height="62px" viewBox="0 0 62 62" version="1.1" xmlns="http://www.w3.org/2000/svg" xmlns:xlink="http://www.w3.org/1999/xlink">
    <!-- Generator: Sketch 46.2 (44496) - http://www.bohemiancoding.com/sketch -->
    <title>SPOOTNIK</title>
    <desc>Created with Sketch.</desc>
    <defs></defs>
    <g id="Page-1" stroke="none" stroke-width="1" fill="none" fill-rule="evenodd">
        <g id="Artboard" transform="translate(-142.000000, -105.000000)" fill="#008CF5">
            <g id="SPOOTNIK" transform="translate(142.000000, 105.000000)">
                <path d="M48.357,61.64 C44.867,61.64 41.587,60.282 39.121,57.815 C36.654,55.348 35.296,52.069 35.296,48.58 C35.296,45.09 36.654,41.811 39.121,39.345 C41.587,36.877 44.867,35.519 48.357,35.519 C51.845,35.519 55.125,36.877 57.591,39.345 C60.058,41.811 61.418,45.09 61.418,48.58 C61.418,52.069 60.058,55.348 57.591,57.815 C55.125,60.282 51.845,61.64 48.357,61.64 L48.357,61.64 Z M48.357,40.972 C46.324,40.972 44.413,41.763 42.977,43.2 C41.539,44.637 40.747,46.548 40.749,48.58 C40.747,50.612 41.539,52.523 42.977,53.959 C44.413,55.396 46.324,56.187 48.357,56.187 C50.388,56.187 52.299,55.396 53.735,53.959 C55.173,52.523 55.965,50.612 55.965,48.58 C55.965,46.548 55.173,44.637 53.735,43.2 C52.299,41.763 50.388,40.972 48.357,40.972 L48.357,40.972 Z" id="Fill-1"></path>
                <path d="M41.058,56.476 C40.863,56.476 40.666,56.444 40.472,56.377 L1.81,43.194 C0.858,42.87 0.351,41.838 0.675,40.887 C1,39.937 2.037,39.428 2.981,39.754 L41.644,52.937 C42.595,53.261 43.103,54.293 42.778,55.244 C42.521,55.999 41.814,56.476 41.058,56.476" id="Fill-2"></path>
                <path d="M54.855,42.677 C54.099,42.677 53.393,42.202 53.135,41.445 L39.952,2.784 C39.627,1.833 40.135,0.801 41.086,0.477 C42.025,0.15 43.067,0.658 43.392,1.611 L56.575,40.272 C56.9,41.223 56.393,42.255 55.441,42.579 C55.248,42.645 55.051,42.677 54.855,42.677" id="Fill-3"></path>
                <path d="M45.256,40.65 C44.608,40.65 43.981,40.304 43.653,39.694 L29.856,14.067 C29.38,13.183 29.712,12.081 30.596,11.605 C31.478,11.127 32.582,11.459 33.058,12.343 L46.855,37.971 C47.331,38.855 46.999,39.957 46.115,40.433 C45.842,40.581 45.547,40.65 45.256,40.65" id="Fill-4"></path>
                <path d="M47.395,50.013 C46.93,50.013 46.465,49.835 46.11,49.48 L4.861,8.232 C4.151,7.522 4.151,6.371 4.861,5.661 C5.571,4.951 6.721,4.951 7.431,5.661 L48.68,46.91 C49.39,47.62 49.39,48.77 48.68,49.48 C48.325,49.835 47.86,50.013 47.395,50.013" id="Fill-5"></path>
            </g>
        </g>
    </g>
</svg>